<?xml version="1.0" standalone="no"?>
<!DOCTYPE svg PUBLIC "-//W3C//DTD SVG 1.1//EN" "http://www.w3.org/Graphics/SVG/1.1/DTD/svg11.dtd" >
<svg xmlns="http://www.w3.org/2000/svg">
<metadata>
<json>
<![CDATA[
{
	"fontFamily": "travelcations",
	"majorVersion": 1,
	"minorVersion": 0,
	"version": "Version 1.0",
	"fontId": "travelcations",
	"psName": "travelcations",
	"subFamily": "Regular",
	"fullName": "travelcations",
	"description": "Font generated by IcoMoon."
}
]]>
</json>
</metadata>
<defs>
<font id="travelcations" horiz-adv-x="1024">
<font-face units-per-em="1024" ascent="960" descent="-64" />
<missing-glyph horiz-adv-x="1024" />
<glyph unicode="&#x20;" horiz-adv-x="512" d="" />
<glyph unicode="&#xe900;" glyph-name="instagram" data-tags="instagram" d="M200.704 943.616c-72.704-22.528-162.816-114.688-184.32-188.416-23.552-79.872-23.552-534.528 0-614.4 22.528-76.8 111.616-165.888 188.416-188.416 79.872-23.552 534.528-23.552 614.4 0 76.8 22.528 165.888 111.616 188.416 188.416 23.552 79.872 23.552 534.528 0 614.4-22.528 76.8-111.616 165.888-188.416 188.416s-543.744 22.528-618.496 0zM831.488 844.288c31.744-18.432 58.368-45.056 76.8-76.8l28.672-48.128v-542.72l-28.672-48.128c-18.432-31.744-45.056-58.368-76.8-76.8l-48.128-28.672h-542.72l-48.128 28.672c-31.744 18.432-58.368 45.056-76.8 76.8-28.672 48.128-28.672 48.128-31.744 273.408-2.048 123.904-1.024 248.832 3.072 277.504 11.264 92.16 76.8 167.936 162.816 189.44 17.408 4.096 144.384 7.168 282.624 6.144l250.88-2.048 48.128-28.672zM744.448 767.488c-22.528-24.576-21.504-66.56 1.024-87.040 40.96-36.864 104.448-9.216 104.448 46.080 0 52.224-70.656 79.872-105.472 40.96zM427.008 689.664c-56.32-21.504-105.472-62.464-137.216-116.736-24.576-40.96-28.672-59.392-28.672-125.952 0-68.608 4.096-82.944 30.72-128 78.848-126.976 239.616-163.84 360.448-82.944 202.752 136.192 119.808 448.512-122.88 463.872-38.912 3.072-77.824-1.024-102.4-10.24zM594.944 595.456c64.512-32.768 100.352-116.736 79.872-190.464-32.768-124.928-190.464-166.912-281.6-75.776-137.216 137.216 28.672 356.352 201.728 266.24z" />
<glyph unicode="&#xe901;" glyph-name="issue" data-tags="issue" horiz-adv-x="901" d="M367.616 936.448c-100.352-67.584-109.568-190.464-19.456-267.264 18.432-14.336 37.888-26.624 46.080-26.624 14.336 0 25.6-21.504 25.6-51.2 0-15.36-9.216-19.456-48.128-22.528-47.104-3.072-49.152-4.096-52.224-35.84l-3.072-33.792h103.424l-2.048-242.688-3.072-243.712-28.672 2.048c-39.936 3.072-113.664 41.984-149.504 78.848-43.008 46.080-89.088 139.264-68.608 139.264 2.048 0 28.672-12.288 58.368-26.624 51.2-26.624 54.272-26.624 67.584-8.192 7.168 10.24 13.312 23.552 13.312 30.72 0 15.36-195.584 109.568-205.824 99.328-9.216-10.24-102.4-190.464-98.304-192.512 15.36-12.288 50.176-25.6 57.344-21.504 5.12 3.072 14.336 19.456 21.504 36.864 16.384 39.936 23.552 38.912 39.936-7.168 16.384-43.008 82.944-118.784 134.144-151.552 117.76-73.728 271.36-73.728 389.12 0 47.104 29.696 114.688 104.448 132.096 146.432 17.408 40.96 26.624 40.96 47.104 2.048 9.216-16.384 18.432-30.72 21.504-30.72 4.096 0 45.056 19.456 52.224 25.6 4.096 2.048-89.088 182.272-98.304 192.512-10.24 10.24-205.824-83.968-205.824-99.328 0-7.168 6.144-20.48 13.312-30.72 13.312-18.432 16.384-18.432 68.608 8.192 29.696 15.36 56.32 24.576 58.368 22.528 11.264-11.264-21.504-79.872-57.344-120.832-41.984-47.104-115.712-90.112-161.792-93.184l-28.672-2.048-3.072 243.712-2.048 242.688h103.424l-3.072 33.792c-3.072 31.744-5.12 32.768-51.2 35.84-39.936 3.072-49.152 7.168-49.152 22.528 0 29.696 11.264 51.2 25.6 51.2 20.48 0 75.776 49.152 92.16 82.944 71.68 138.24-102.4 297.984-231.424 210.944zM486.4 884.224c62.464-26.624 83.968-111.616 37.888-152.576-55.296-50.176-131.072-36.864-162.816 27.648-16.384 34.816-16.384 38.912 0 73.728 11.264 21.504 30.72 41.984 51.2 50.176 40.96 18.432 32.768 17.408 73.728 1.024z" />
<glyph unicode="&#xe902;" glyph-name="location" data-tags="location" horiz-adv-x="696" d="M224.256 936.448c-105.472-44.032-163.84-105.472-203.776-210.944s-17.408-243.712 68.608-413.696c68.608-137.216 229.376-360.448 259.072-360.448s190.464 223.232 260.096 360.448c61.44 122.88 91.136 229.376 86.016 313.344-10.24 188.416-148.48 324.608-335.872 332.8-62.464 2.048-88.064-2.048-134.144-21.504zM463.872 871.936c93.184-47.104 154.624-130.048 166.912-225.28 8.192-71.68-24.576-194.56-80.896-305.152-40.96-77.824-132.096-221.184-181.248-282.624l-20.48-25.6-20.48 25.6c-49.152 62.464-140.288 204.8-181.248 284.672-81.92 156.672-102.4 295.936-58.368 384 41.984 81.92 111.616 141.312 191.488 161.792 46.080 11.264 145.408 2.048 184.32-17.408zM276.48 779.776c-75.776-32.768-115.712-92.16-115.712-174.080 0-63.488 22.528-106.496 77.824-151.552 35.84-28.672 47.104-31.744 109.568-31.744s73.728 3.072 109.568 31.744c55.296 45.056 77.824 88.064 77.824 151.552 0 82.944-39.936 142.336-117.76 175.104-48.128 19.456-95.232 19.456-141.312-1.024zM393.216 720.384c97.28-40.96 104.448-181.248 10.24-226.304-40.96-19.456-69.632-19.456-110.592 0-93.184 44.032-88.064 184.32 8.192 226.304 40.96 17.408 50.176 17.408 92.16 0z" />
<glyph unicode="&#xe903;" glyph-name="map" data-tags="map" horiz-adv-x="1072" d="M592 931.2c-35.2-19.2-70.4-56-92.8-100.8l-35.2-70.4-232 6.4-232 4.8v-739.2h180.8c153.6 0 208-8 352-48l171.2-48 184 52.8 184 51.2v731.2l-72-9.6c-60.8-9.6-72-8-72 16 0 46.4-62.4 129.6-118.4 156.8-72 33.6-148.8 32-217.6-3.2zM772.8 878.4c102.4-52.8 118.4-168 44.8-315.2-25.6-49.6-60.8-108.8-80-131.2l-33.6-40-33.6 40c-64 75.2-126.4 220.8-126.4 291.2 1.6 129.6 121.6 209.6 228.8 155.2zM336 392v-296h-272v592h272v-296zM502.4 590.4c19.2-49.6 65.6-132.8 102.4-184 67.2-96 67.2-96 67.2-243.2v-147.2l-41.6 9.6c-24 6.4-83.2 22.4-132.8 36.8l-89.6 27.2-4.8 300.8c-3.2 296-3.2 299.2 28.8 294.4 24-3.2 44.8-30.4 70.4-94.4zM1004.8 390.4l-4.8-297.6-91.2-28.8c-51.2-16-110.4-33.6-132.8-38.4l-40-9.6v147.2c0 147.2 0 148.8 64 240 57.6 81.6 102.4 168 132.8 257.6 6.4 14.4 25.6 27.2 43.2 27.2 32 0 32-6.4 28.8-297.6zM640 784c-38.4-38.4-40-60.8-6.4-108.8 46.4-67.2 166.4-27.2 166.4 56 0 32-60.8 84.8-96 84.8-17.6 0-46.4-14.4-64-32zM720 720c0-8-6.4-16-16-16-8 0-16 8-16 16 0 9.6 8 16 16 16 9.6 0 16-6.4 16-16z" />
<glyph unicode="&#xe904;" glyph-name="mouse" data-tags="mouse" d="M518.4 925.867c-76.8 0-149.333-29.867-204.8-85.333s-85.333-128-85.333-204.8v-360.533c0-160 130.133-290.133 290.133-290.133s290.133 130.133 290.133 290.133v360.533c0 76.8-29.867 149.333-85.333 204.8-55.467 53.333-128 85.333-204.8 85.333zM518.4 36.267c-132.267 0-241.067 108.8-241.067 241.067v296.533h480v-296.533c2.133-134.4-106.667-241.067-238.933-241.067zM759.467 622.933h-228.267v251.733c59.733-2.133 115.2-27.733 157.867-70.4 44.8-44.8 70.4-106.667 70.4-170.667v-10.667z" />
<glyph unicode="&#xe905;" glyph-name="play" data-tags="play" d="M0 449.024c0-282.624 4.096-513.024 8.192-513.024s12.288 4.096 18.432 9.216c5.12 5.12 226.304 117.76 492.544 250.88 265.216 133.12 485.376 245.76 489.472 250.88 4.096 7.168-871.424 453.632-1000.448 510.976-5.12 2.048-8.192-227.328-8.192-508.928zM457.728 632.32c242.688-119.808 349.184-177.152 345.088-186.368-7.168-15.36-698.368-362.496-705.536-354.304-4.096 4.096-8.192 602.112-5.12 709.632 0 3.072 3.072 5.12 7.168 5.12s164.864-77.824 358.4-174.080z" />
<glyph unicode="&#xe906;" glyph-name="security" data-tags="security" d="M0 692.736c0-304.128 4.096-327.68 78.848-441.344 51.2-78.848 121.856-145.408 220.16-209.92 63.488-40.96 193.536-105.472 212.992-105.472 5.12 0 39.936 14.336 78.848 31.744 160.768 73.728 313.344 199.68 374.784 310.272 52.224 94.208 58.368 136.192 58.368 419.84v262.144h-35.84c-30.72 0-35.84-3.072-35.84-22.528-1.024-75.776-84.992-164.864-167.936-177.152-110.592-17.408-231.424 70.656-231.424 168.96 0 28.672-2.048 30.72-40.96 30.72s-40.96-2.048-40.96-30.72c0-98.304-120.832-186.368-231.424-168.96-82.944 12.288-166.912 101.376-167.936 177.152 0 19.456-5.12 22.528-35.84 22.528h-35.84v-267.264zM130.048 728.576c83.968-56.32 198.656-54.272 292.864 6.144 25.6 15.36 49.152 26.624 52.224 23.552 10.24-10.24 7.168-717.824-3.072-723.968-11.264-7.168-116.736 51.2-185.344 101.376-73.728 54.272-146.432 137.216-180.224 204.8-28.672 60.416-29.696 65.536-32.768 244.736-3.072 149.504-1.024 181.248 10.24 174.080 7.168-4.096 28.672-18.432 46.080-30.72zM698.368 693.76c62.464-15.36 142.336-1.024 194.56 34.816 18.432 12.288 39.936 26.624 47.104 30.72 11.264 7.168 13.312-24.576 10.24-174.080-3.072-178.176-4.096-185.344-32.768-244.736-51.2-104.448-171.008-215.040-309.248-284.672-28.672-14.336-55.296-23.552-59.392-20.48-8.192 8.192-8.192 714.752 0 722.944 3.072 3.072 26.624-7.168 52.224-23.552 24.576-16.384 68.608-34.816 97.28-40.96z" />
<glyph unicode="&#xe907;" glyph-name="star" data-tags="star" horiz-adv-x="1075" d="M522.24 926.208c0-13.312-67.584-227.328-98.304-311.296l-16.384-44.032h-191.488c-105.472 0-194.56-3.072-198.656-6.144-3.072-4.096 63.488-57.344 149.504-118.784s156.672-115.712 158.72-119.808c2.048-7.168-31.744-117.76-110.592-363.52l-10.24-28.672 33.792 24.576c101.376 76.8 292.864 212.992 299.008 212.992s197.632-136.192 299.008-212.992l33.792-24.576-10.24 28.672c-78.848 245.76-112.64 356.352-110.592 363.52 2.048 4.096 72.704 58.368 158.72 119.808s152.576 114.688 149.504 118.784c-4.096 3.072-93.184 6.144-198.656 6.144h-191.488l-16.384 44.032c-30.72 83.968-98.304 297.984-98.304 311.296 0 7.168-7.168 13.312-15.36 13.312s-15.36-6.144-15.36-13.312zM578.56 616.96c16.384-50.176 33.792-98.304 38.912-104.448 7.168-9.216 45.056-13.312 129.024-13.312h118.784l-92.16-66.56c-50.176-36.864-95.232-70.656-99.328-74.752s8.192-58.368 27.648-118.784c20.48-61.44 34.816-112.64 32.768-114.688s-45.056 26.624-96.256 62.464c-52.224 36.864-97.28 66.56-100.352 66.56s-48.128-29.696-100.352-66.56c-51.2-35.84-94.208-64.512-96.256-62.464s12.288 53.248 32.768 114.688c19.456 60.416 31.744 114.688 27.648 118.784s-49.152 37.888-99.328 74.752l-92.16 66.56h118.784c83.968 0 121.856 4.096 129.024 13.312 5.12 6.144 22.528 54.272 38.912 104.448 16.384 51.2 30.72 96.256 33.792 100.352 8.192 15.36 18.432-6.144 48.128-100.352z" />
<glyph unicode="&#xe908;" glyph-name="star-b" data-tags="star-b" horiz-adv-x="1106" d="M525.312 947.712c-4.096-7.168-33.792-87.040-64.512-177.152l-56.32-163.84-194.56-3.072c-198.656-3.072-208.896-5.12-209.92-44.032 0-10.24 64.512-61.44 157.696-126.976l158.72-110.592-60.416-173.056c-32.768-95.232-57.344-180.224-55.296-187.392 15.36-38.912 45.056-26.624 198.656 80.896l153.6 108.544 153.6-108.544c152.576-107.52 183.296-119.808 197.632-81.92 3.072 8.192-21.504 92.16-54.272 188.416l-60.416 173.056 153.6 110.592c84.992 60.416 156.672 115.712 159.744 123.904s0 21.504-7.168 29.696c-10.24 12.288-50.176 15.36-203.776 17.408l-190.464 3.072-56.32 163.84c-63.488 185.344-65.536 189.44-92.16 189.44-10.24 0-22.528-6.144-27.648-12.288z" />
<glyph unicode="&#xe909;" glyph-name="suitcase" data-tags="suitcase" d="M625.067 819.2h-32v17.067c0 27.733-21.333 49.067-49.067 49.067h-64c-27.733 0-49.067-21.333-49.067-49.067v-17.067h-32v17.067c0 44.8 36.267 81.067 81.067 81.067h64c44.8 0 81.067-36.267 81.067-81.067v-17.067zM755.2 787.2h-486.4c-36.267 0-64-29.867-64-64v-631.467c0-29.867 21.333-57.6 51.2-64 8.533 27.733 34.133 46.933 61.867 46.933 29.867 0 55.467-21.333 61.867-49.067h264.533c6.4 27.733 32 49.067 61.867 49.067s55.467-19.2 61.867-46.933c29.867 6.4 51.2 32 51.2 64v631.467c0 36.267-27.733 64-64 64zM480 723.2h64c8.533 0 17.067-6.4 17.067-17.067 0-8.533-6.4-17.067-17.067-17.067h-64c-8.533 0-17.067 6.4-17.067 17.067s8.533 17.067 17.067 17.067zM236.8 691.2v32c0 17.067 14.933 32 32 32h81.067c8.533 0 17.067-6.4 17.067-17.067 0-8.533-6.4-17.067-17.067-17.067h-81.067v-32c0-8.533-6.4-17.067-17.067-17.067-8.533 2.133-14.933 10.667-14.933 19.2zM268.8 91.733c0 0 0 0 0 0-10.667 0-17.067 8.533-17.067 17.067v516.267c0 8.533 6.4 14.933 14.933 17.067 0 0 2.133 0 2.133 0h194.133c8.533 0 17.067-6.4 17.067-17.067v-518.4c0-8.533-6.4-17.067-17.067-17.067h-194.133zM770.133 108.8c0-8.533-4.267-14.933-12.8-14.933-2.133 0-2.133 0-4.267 0h-194.133c-8.533 0-17.067 6.4-17.067 17.067v514.133c0 8.533 6.4 17.067 17.067 17.067h194.133c2.133 0 2.133 0 4.267 0 6.4-2.133 12.8-8.533 12.8-14.933v-518.4zM738.133 10.667c0-17.673-14.327-32-32-32s-32 14.327-32 32c0 17.673 14.327 32 32 32s32-14.327 32-32zM349.867 10.667c0-17.673-14.327-32-32-32s-32 14.327-32 32c0 17.673 14.327 32 32 32s32-14.327 32-32zM266.667 91.733c2.133 0 2.133 0 0 0v0 0zM266.667 642.133v0c2.133 0 2.133 0 0 0v0zM544 625.067v-518.4c0-8.533 6.4-17.067 17.067-17.067h-98.133c8.533 0 17.067 6.4 17.067 17.067v518.4c0 8.533-6.4 17.067-17.067 17.067h98.133c-8.533 0-17.067-6.4-17.067-17.067zM759.467 642.133v0c-2.133 0-2.133 0-4.267 0h4.267zM755.2 91.733c2.133 0 2.133 0 4.267 0v0h-4.267z" />
<glyph unicode="&#xe90a;" glyph-name="support" data-tags="support" d="M123.733 458.667c-51.2-6.4-87.467-53.333-81.067-104.533 6.4-42.667 40.533-76.8 83.2-81.067 4.267-27.733 27.733-46.933 55.467-46.933h74.667c32 0 57.6 25.6 57.6 57.6v164.267c0 32-25.6 57.6-57.6 57.6h-74.667c-4.267 0-6.4 0-10.667-2.133 0 181.333 153.6 330.667 341.333 330.667s341.333-147.2 341.333-330.667c-4.267 0-6.4 2.133-10.667 2.133h-74.667c-32 0-57.6-25.6-57.6-57.6v-166.4c0-32 25.6-57.6 57.6-57.6h34.133c-8.533-53.333-46.933-96-98.133-108.8-17.067 34.133-59.733 49.067-93.867 32s-49.067-59.733-32-93.867c17.067-34.133 59.733-49.067 93.867-32 19.2 8.533 32 25.6 38.4 46.933 76.8 17.067 132.267 81.067 140.8 157.867 23.467 4.267 42.667 23.467 46.933 46.933 51.2 6.4 87.467 51.2 83.2 102.4-4.267 42.667-38.4 76.8-81.067 83.2v46.933c0 206.933-174.933 375.467-388.267 375.467s-388.267-168.533-388.267-377.6v-44.8zM172.8 448c0 6.4 4.267 10.667 10.667 10.667h72.533c6.4 0 10.667-4.267 10.667-10.667v-166.4c0-6.4-4.267-10.667-10.667-10.667h-74.667c-6.4 0-10.667 4.267-10.667 10.667v166.4zM851.2 281.6c0-6.4-4.267-10.667-10.667-10.667h-72.533c-6.4 0-10.667 4.267-10.667 10.667v166.4c0 6.4 4.267 10.667 10.667 10.667h72.533c6.4 0 10.667-4.267 10.667-10.667v-166.4z" />
<glyph unicode="&#xe90b;" glyph-name="twitter" data-tags="twitter" horiz-adv-x="1260" d="M784.384 944.64c-102.4-38.912-159.744-118.784-167.936-231.424l-5.12-71.68-52.224 6.144c-146.432 20.48-288.768 89.088-405.504 196.608l-68.608 63.488-12.288-26.624c-37.888-82.944-18.432-192.512 46.080-268.288 39.936-46.080 31.744-53.248-31.744-27.648-33.792 14.336-35.84 14.336-35.84-6.144 0-76.8 76.8-185.344 155.648-219.136l44.032-19.456-53.248-3.072c-29.696-2.048-54.272-6.144-54.272-10.24s7.168-19.456 17.408-32.768c48.128-72.704 108.544-114.688 184.32-131.072l38.912-8.192-56.32-32.768c-71.68-41.984-148.48-64.512-245.76-72.704l-76.8-6.144 81.92-37.888c366.592-166.912 788.48-21.504 960.512 332.8 53.248 107.52 77.824 197.632 79.872 292.864l2.048 66.56 60.416 58.368c32.768 31.744 59.392 63.488 59.392 70.656 0 6.144-5.12 8.192-11.264 4.096-20.48-12.288-111.616-32.768-111.616-24.576 0 4.096 7.168 10.24 15.36 13.312 18.432 8.192 76.8 87.040 76.8 106.496 0 11.264-4.096 11.264-22.528-1.024-13.312-7.168-48.128-21.504-77.824-31.744-53.248-17.408-55.296-17.408-76.8 3.072-61.44 55.296-179.2 77.824-257.024 48.128z" />
<glyph unicode="&#xe90c;" glyph-name="user" data-tags="user" d="M420.864 942.592c-143.36-51.2-207.872-238.592-126.976-370.688 101.376-163.84 335.872-161.792 438.272 3.072 26.624 45.056 30.72 59.392 30.72 128 0 66.56-4.096 84.992-28.672 125.952-64.512 110.592-191.488 156.672-313.344 113.664zM332.8 297.472c-148.48-31.744-280.576-105.472-317.44-178.176-9.216-17.408-15.36-58.368-15.36-106.496v-76.8h1024v76.8c0 91.136-12.288 120.832-72.704 173.056-123.904 105.472-407.552 156.672-618.496 111.616z" />
<glyph unicode="&#xe90d;" glyph-name="youtube" data-tags="youtube" horiz-adv-x="1362" d="M230.4 950.784c-119.808-10.24-158.72-34.816-201.728-129.024-22.528-50.176-23.552-59.392-23.552-373.76v-322.56l27.648-58.368c43.008-91.136 81.92-111.616 236.544-123.904 68.608-5.12 302.080-7.168 519.168-5.12 387.072 4.096 396.288 5.12 443.392 27.648 52.224 25.6 89.088 66.56 109.568 123.904 17.408 50.176 25.6 508.928 11.264 634.88-13.312 118.784-40.96 165.888-118.784 204.8l-51.2 25.6-435.2 1.024c-239.616 1.024-472.064-1.024-517.12-5.12zM750.592 576c99.328-67.584 181.248-124.928 180.224-128 0-4.096-236.544-165.888-349.184-238.592l-28.672-19.456v258.048c0 141.312 4.096 256 8.192 253.952 4.096-1.024 89.088-58.368 189.44-125.952z" />
<glyph unicode="&#xe90e;" glyph-name="bookmark" data-tags="bookmark" horiz-adv-x="963" d="M192.512 642.56c-2.048-175.104 0-317.44 5.12-317.44 4.096 0 45.056 25.6 92.16 56.32 46.080 30.72 89.088 56.32 95.232 56.32s48.128-25.6 94.208-56.32c46.080-30.72 88.064-56.32 94.208-56.32s10.24 111.616 10.24 317.44v317.44h-388.096l-3.072-317.44zM512 673.28c0-123.904-3.072-225.28-6.144-225.28-4.096 0-31.744 16.384-61.44 35.84s-56.32 35.84-60.416 35.84c-3.072 0-29.696-16.384-59.392-35.84-28.672-19.456-56.32-35.84-60.416-35.84-10.24 0-11.264 434.176-1.024 443.392 3.072 4.096 61.44 7.168 128 7.168h120.832v-225.28zM0 417.28v-481.28h962.56v962.56h-317.44v-71.68h256l-2.048-411.648-3.072-412.672h-829.44l-3.072 411.648-2.048 411.648 27.648 3.072c23.552 2.048 29.696 8.192 31.744 36.864l3.072 32.768h-123.904v-481.28z" />
<glyph unicode="&#xe90f;" glyph-name="call" data-tags="call" d="M17.408 941.568c-43.008-47.104 5.12-317.44 84.992-473.088 110.592-218.112 320.512-401.408 547.84-479.232 80.896-27.648 219.136-53.248 286.72-53.248 79.872 0 87.040 12.288 87.040 154.624 0 81.92-4.096 123.904-13.312 136.192-10.24 14.336-34.816 21.504-100.352 27.648-47.104 4.096-102.4 13.312-121.856 18.432-19.456 6.144-41.984 11.264-49.152 11.264-8.192 0-48.128-32.768-88.064-71.68l-74.752-71.68-65.536 41.984c-91.136 59.392-196.608 163.84-256 254.976l-50.176 75.776 71.68 72.704c73.728 73.728 80.896 92.16 61.44 143.36-5.12 14.336-14.336 66.56-20.48 115.712-7.168 63.488-15.36 93.184-27.648 102.4-11.264 8.192-57.344 12.288-136.192 12.288-103.424 0-121.856-3.072-136.192-18.432z" />
<glyph unicode="&#xe910;" glyph-name="certificate" data-tags="certificate" d="M753.067-21.333c-12.8 0-21.333 8.533-21.333 21.333s8.533 21.333 21.333 21.333c25.6 0 46.933 21.333 46.933 46.933v633.6h-117.333c-29.867 0-55.467 25.6-55.467 55.467v117.333h-356.267c-25.6 0-46.933-21.333-46.933-46.933v-757.333c0-25.6 21.333-46.933 46.933-46.933h138.667c12.8 0 21.333-8.533 21.333-21.333s-8.533-21.333-21.333-21.333h-138.667c-49.067 0-89.6 40.533-89.6 89.6v757.333c0 49.067 40.533 89.6 89.6 89.6h381.867c0 0 2.133 0 4.267-2.133l2.133-2.133h2.133c2.133 0 2.133-2.133 4.267-2.133l172.8-172.8c2.133-2.133 2.133-2.133 2.133-4.267v-4.267c0-2.133 0-4.267 2.133-6.4v-657.067c0-46.933-40.533-87.467-89.6-87.467zM672 744.533h100.267l-100.267 100.267v-100.267zM563.2 345.6c-42.667-6.4-76.8-40.533-85.333-85.333-6.4-36.267 6.4-70.4 34.133-93.867v-174.933c0-6.4 4.267-10.667 10.667-10.667 2.133 0 4.267 2.133 6.4 2.133l44.8 44.8c4.267 4.267 10.667 4.267 14.933 0l44.8-44.8c4.267-4.267 10.667-4.267 14.933 0 2.133 2.133 2.133 4.267 2.133 6.4v174.933c42.667 36.267 49.067 102.4 10.667 145.067-25.6 29.867-61.867 42.667-98.133 36.267zM580.267 172.8c-38.4 0-68.267 29.867-68.267 68.267s29.867 68.267 68.267 68.267c38.4 0 68.267-29.867 68.267-68.267 2.133-38.4-29.867-68.267-68.267-68.267zM657.067 241.067c0-42.415-34.385-76.8-76.8-76.8s-76.8 34.385-76.8 76.8c0 42.415 34.385 76.8 76.8 76.8s76.8-34.385 76.8-76.8z" />
<glyph unicode="&#xe911;" glyph-name="check" data-tags="check" horiz-adv-x="1004" d="M925.696 940.544c-23.552-50.176-573.44-881.664-583.68-881.664-6.144 0-65.536 49.152-133.12 110.592-169.984 151.552-152.576 140.288-182.272 117.76-14.336-10.24-26.624-21.504-26.624-25.6 0-12.288 361.472-330.752 365.568-320.512 2.048 6.144 96.256 151.552 210.944 324.608 345.088 524.288 429.056 654.336 424.96 657.408-23.552 15.36-59.392 36.864-62.464 36.864-2.048 0-8.192-9.216-13.312-19.456z" />
<glyph unicode="&#xe912;" glyph-name="clock" data-tags="clock" d="M363.52 935.424c-97.28-31.744-125.952-48.128-192.512-108.544-75.776-68.608-114.688-131.072-145.408-228.352-41.984-131.072-28.672-269.312 36.864-397.312 25.6-51.2 112.64-144.384 169.984-182.272 69.632-46.080 193.536-82.944 279.552-82.944s209.92 36.864 279.552 82.944c191.488 126.976 275.456 362.496 206.848 579.584-30.72 97.28-69.632 159.744-145.408 228.352-65.536 60.416-104.448 81.92-201.728 111.616-93.184 28.672-193.536 27.648-287.744-3.072zM701.44 854.528c101.376-48.128 168.96-116.736 218.112-220.16 35.84-75.776 37.888-83.968 37.888-186.368s-2.048-110.592-37.888-186.368c-49.152-104.448-116.736-172.032-221.184-221.184-75.776-35.84-83.968-37.888-186.368-37.888s-110.592 2.048-186.368 37.888c-104.448 49.152-172.032 116.736-221.184 221.184-35.84 75.776-37.888 83.968-37.888 186.368s2.048 110.592 37.888 186.368c46.080 96.256 113.664 167.936 201.728 211.968 86.016 44.032 124.928 52.224 228.352 48.128 76.8-3.072 100.352-8.192 166.912-39.936zM478.208 656.896c-4.096-4.096-7.168-73.728-7.168-154.624v-146.432l182.272 2.048 181.248 3.072v51.2l-301.056 6.144-3.072 119.808c-3.072 111.616-4.096 119.808-23.552 122.88-12.288 2.048-24.576 0-28.672-4.096z" />
<glyph unicode="&#xe913;" glyph-name="combine" data-tags="combine" d="M392.533-21.333c-29.867 0-53.333 23.467-53.333 53.333v243.2h-243.2c-29.867 0-53.333 23.467-53.333 53.333v535.467c0 29.867 23.467 53.333 53.333 53.333h535.467c29.867 0 53.333-23.467 53.333-53.333v-245.333h245.333c29.867 0 53.333-23.467 53.333-53.333v-535.467c0-29.867-23.467-53.333-53.333-53.333h-537.6zM386.133 25.6h548.267v548.267h-249.6v-245.333c0-29.867-23.467-53.333-53.333-53.333h-245.333v-249.6zM89.6 322.133h249.6v245.333c0 29.867 23.467 53.333 53.333 53.333h245.333v249.6h-548.267v-548.267z" />
<glyph unicode="&#xe914;" glyph-name="comment" data-tags="comment" d="M27.648 931.328l-27.648-28.672v-666.624l24.576-22.528c14.336-13.312 40.96-26.624 59.392-30.72l33.792-7.168 3.072-114.688c1.024-63.488 5.12-114.688 8.192-114.688s66.56 53.248 140.288 117.76l134.144 117.76h557.056l63.488 53.248v667.648l-55.296 57.344h-913.408l-27.648-28.672zM957.44 570.88v-322.56l-287.744-3.072-288.768-2.048-92.16-81.92c-51.2-45.056-95.232-81.92-98.304-81.92s-6.144 35.84-8.192 79.872l-3.072 78.848-112.64 10.24-3.072 312.32c-1.024 172.032 0 318.464 3.072 325.632 3.072 10.24 97.28 12.288 447.488 10.24l443.392-3.072v-322.56zM188.416 771.584c-3.072-8.192-4.096-22.528-2.048-31.744 3.072-14.336 38.912-16.384 325.632-16.384h322.56v57.344l-320.512 3.072c-272.384 2.048-320.512 0-325.632-12.288zM184.32 632.32v-30.72h655.36v61.44h-655.36v-30.72zM184.32 509.44v-30.72l177.152 2.048 176.128 3.072 3.072 28.672 3.072 27.648h-359.424v-30.72z" />
<glyph unicode="&#xe915;" glyph-name="contrast" data-tags="contrast" d="M305.067 826.927c14.933 8.533 29.867 14.933 44.8 21.333-14.933-6.4-29.867-12.8-44.8-21.333zM409.6 869.593c10.667 2.133 21.333 4.267 32 6.4-10.667-2.133-21.333-4.267-32-6.4zM452.267 878.127c-4.267 0-6.4-2.133-10.667-2.133 10.667 2.133 21.333 4.267 32 4.267-8.533 0-14.933 0-21.333-2.133zM657.067 58.927c12.8 4.267 25.6 8.533 36.267 14.933-10.667-6.4-23.467-10.667-36.267-14.933zM729.6 90.927c10.667 6.4 21.333 12.8 32 21.333-10.667-6.4-21.333-12.8-32-21.333zM861.867 703.193c0 0 2.133-2.133 2.133-2.133v0c0 0 0 2.133-2.133 2.133zM932.267 378.927c2.133 12.8 4.267 23.467 6.4 36.267-2.133-12.8-4.267-25.6-6.4-36.267zM957.867 619.993c-2.133 2.133-2.133 6.4-4.267 8.533 2.133-4.267 2.133-6.4 4.267-8.533 0-2.133 0-2.133 2.133-4.267-2.133 0-2.133 2.133-2.133 4.267zM46.933 479.193c0-2.133 0-6.4 0-8.533 0 4.267 0 8.533 0 10.667 0 0 0-2.133 0-2.133zM130.133 193.327c14.933-23.467 34.133-44.8 53.333-64-19.2 19.2-38.4 40.533-53.333 64zM902.4 726.66c-2.133 4.267-6.4 8.533-8.533 12.8 2.133-4.267 4.267-8.533 8.533-12.8 2.133-2.133 2.133-4.267 4.267-6.4-2.133 2.133-4.267 4.267-4.267 6.4zM985.6 436.527c0 0 0 2.133 0 2.133 0 2.133 0 6.4 0 8.533 0-4.267 0-8.533 0-10.667zM46.933 479.193c0-2.133 0-6.4 0-8.533 0 4.267 0 8.533 0 10.667 0 0 0-2.133 0-2.133zM130.133 193.327c14.933-23.467 34.133-44.8 53.333-64-19.2 19.2-38.4 40.533-53.333 64zM861.867 703.193c0 0 2.133-2.133 2.133-2.133v0c0 0 0 2.133-2.133 2.133zM902.4 726.66c-2.133 4.267-6.4 8.533-8.533 12.8 2.133-4.267 4.267-8.533 8.533-12.8 2.133-2.133 2.133-4.267 4.267-6.4-2.133 2.133-4.267 4.267-4.267 6.4zM985.6 436.527c0 0 0 2.133 0 2.133 0 2.133 0 6.4 0 8.533 0-4.267 0-8.533 0-10.667zM985.6 483.46c0 6.4 0 12.8-2.133 17.067 0 4.267 0 6.4 0 10.667 0 6.4-2.133 12.8-2.133 19.2-2.133 17.067-6.4 34.133-10.667 49.067-2.133 6.4-4.267 12.8-4.267 17.067-2.133 6.4-4.267 12.8-6.4 19.2 0 2.133 0 2.133-2.133 4.267 0 2.133-2.133 6.4-4.267 8.533-2.133 4.267-4.267 10.667-6.4 14.933-2.133 6.4-4.267 10.667-8.533 17.067 0 0 0 2.133-2.133 2.133-6.4 12.8-12.8 25.6-21.333 38.4-4.267 6.4-8.533 12.8-12.8 19.2-2.133 2.133-2.133 4.267-4.267 6.4-2.133 4.267-6.4 8.533-8.533 12.8 0 0 0 2.133-2.133 2.133-8.533 10.667-17.067 21.333-25.6 32-6.4 6.4-12.8 12.8-17.067 19.2-4.267 4.267-8.533 8.533-12.8 12.8-6.4 6.4-14.933 12.8-21.333 19.2-4.267 4.267-8.533 6.4-12.8 10.667-6.4 6.4-14.933 10.667-23.467 17.067-4.267 2.133-8.533 6.4-12.8 8.533-14.933 8.533-29.867 17.067-44.8 25.6-12.8 6.4-23.467 10.667-36.267 14.933-6.4 2.133-14.933 6.4-21.333 8.533-4.267 2.133-10.667 2.133-14.933 4.267-2.133 0-4.267 2.133-6.4 2.133-4.267 2.133-8.533 2.133-12.8 2.133-4.267 2.133-8.533 2.133-12.8 4.267-6.4 0-10.667 2.133-17.067 2.133-4.267 2.133-10.667 2.133-14.933 2.133-2.133 0-6.4 0-8.533 0-4.267 0-8.533 0-12.8 2.133-6.4 0-12.8 2.133-21.333 2.133s-14.933 0-23.467 0c-6.4 0-12.8 0-19.2 0s-10.667 0-17.067 0-23.467-2.133-34.133-4.267c0 0 0 0 0 0-6.4 0-14.933-2.133-21.333-4.267s-14.933-2.133-21.333-4.267c-6.4-2.133-14.933-4.267-21.333-6.4s-12.8-4.267-21.333-6.4c-4.267-2.133-10.667-4.267-14.933-6.4-2.133 0-6.4-2.133-8.533-4.267-4.267-2.133-8.533-4.267-12.8-6.4-2.133 0-4.267-2.133-6.4-2.133-4.267-2.133-8.533-4.267-14.933-6.4-10.667-6.4-23.467-12.8-34.133-19.2-6.4-4.267-12.8-6.4-17.067-10.667-6.4-4.267-12.8-8.533-19.2-12.8-19.2-12.8-36.267-27.733-51.2-44.8-4.267-4.267-10.667-10.667-14.933-14.933-4.267-6.4-10.667-10.667-14.933-17.067s-8.533-10.667-12.8-17.067c-4.267-6.4-8.533-10.667-12.8-17.067 0 0-2.133-2.133-2.133-2.133-2.133-4.267-6.4-8.533-8.533-14.933-4.267-6.4-8.533-14.933-12.8-23.467-2.133-4.267-6.4-10.667-8.533-14.933-8.533-14.933-14.933-32-21.333-46.933-2.133-6.4-4.267-14.933-6.4-21.333 0 0 0 0 0-2.133-2.133-6.4-4.267-12.8-6.4-19.2 0-2.133 0-2.133 0-4.267-2.133-6.4-4.267-12.8-4.267-21.333-2.133-6.4-2.133-14.933-4.267-21.333 0 0 0-2.133 0-2.133-2.133-6.4-2.133-14.933-2.133-23.467s-2.133-17.067-2.133-25.6c0-4.267 0-6.4 0-10.667v-6.4c0-2.133 0-2.133 0-4.267 0-8.533 0-17.067 0-23.467s0-12.8 2.133-17.067c0-4.267 0-6.4 0-10.667 0-6.4 2.133-12.8 2.133-19.2 2.133-17.067 6.4-34.133 10.667-49.067 2.133-6.4 2.133-12.8 4.267-17.067 0-2.133 0-2.133 0-4.267 2.133-6.4 4.267-12.8 6.4-19.2s6.4-14.933 8.533-21.333c0 0 0 0 0 0 2.133-6.4 6.4-14.933 8.533-21.333 6.4-12.8 14.933-27.733 21.333-40.533 4.267-6.4 6.4-10.667 10.667-17.067 2.133-2.133 2.133-4.267 4.267-6.4 14.933-23.467 34.133-44.8 53.333-64 4.267-4.267 10.667-10.667 14.933-14.933s6.4-6.4 10.667-10.667c2.133-2.133 4.267-2.133 4.267-4.267 4.267-2.133 6.4-6.4 10.667-8.533 8.533-6.4 14.933-12.8 23.467-17.067 4.267-2.133 6.4-4.267 10.667-8.533 4.267-2.133 10.667-6.4 14.933-8.533s8.533-4.267 10.667-6.4c4.267-2.133 6.4-4.267 10.667-6.4 19.2-10.667 38.4-19.2 57.6-25.6 6.4-2.133 14.933-4.267 21.333-6.4 0 0 2.133 0 2.133 0 6.4-2.133 12.8-4.267 19.2-6.4 2.133 0 2.133 0 4.267 0 6.4-2.133 12.8-4.267 21.333-4.267 6.4-2.133 12.8-2.133 19.2-4.267 2.133 0 2.133 0 4.267 0 6.4 0 14.933-2.133 21.333-2.133 8.533 0 17.067-2.133 23.467-2.133 2.133 0 2.133 0 4.267 0s6.4 0 8.533 0h17.067c2.133 0 2.133 0 4.267 0 8.533 0 17.067 0 23.467 0s12.8 0 19.2 2.133c4.267 0 6.4 0 10.667 0 6.4 0 12.8 2.133 19.2 2.133 8.533 2.133 14.933 2.133 23.467 4.267s14.933 2.133 23.467 4.267c6.4 2.133 14.933 4.267 21.333 6.4 0 0 2.133 0 2.133 2.133 6.4 2.133 12.8 4.267 19.2 6.4s12.8 4.267 19.2 6.4c8.533 4.267 17.067 6.4 25.6 10.667 6.4 2.133 12.8 6.4 19.2 10.667s12.8 8.533 19.2 10.667c6.4 4.267 12.8 8.533 19.2 12.8 8.533 6.4 19.2 12.8 27.733 19.2s17.067 14.933 25.6 21.333c0 0 0 0 0 0 6.4 4.267 10.667 10.667 17.067 14.933s10.667 10.667 14.933 17.067c4.267 6.4 10.667 10.667 14.933 17.067s8.533 10.667 12.8 17.067c0 2.133 2.133 2.133 2.133 4.267 4.267 4.267 6.4 8.533 10.667 14.933 0 0 2.133 2.133 2.133 4.267 4.267 4.267 6.4 8.533 8.533 14.933 4.267 6.4 8.533 14.933 12.8 23.467 2.133 4.267 6.4 10.667 8.533 14.933 6.4 14.933 12.8 29.867 19.2 44.8 2.133 4.267 2.133 8.533 4.267 10.667 2.133 4.267 2.133 8.533 4.267 14.933s4.267 12.8 6.4 19.2c0 2.133 0 2.133 2.133 4.267 2.133 6.4 4.267 12.8 4.267 21.333 2.133 6.4 2.133 14.933 4.267 21.333 0 0 0 2.133 0 2.133 0 6.4 2.133 14.933 2.133 23.467s2.133 17.067 2.133 25.6c0 4.267 0 6.4 0 10.667v6.4c0 2.133 0 2.133 0 4.267-2.133 0-2.133 8.533-2.133 17.067zM940.8 436.527c0-6.4 0-14.933-2.133-21.333 0-12.8-2.133-23.467-6.4-36.267 0-2.133 0-6.4-2.133-8.533-4.267-19.2-8.533-36.267-14.933-53.333-4.267-10.667-8.533-21.333-12.8-32s-10.667-21.333-17.067-32c-2.133-4.267-6.4-10.667-8.533-14.933 0 0-2.133-2.133-2.133-2.133-2.133-4.267-6.4-8.533-8.533-12.8s-6.4-10.667-10.667-14.933c-2.133-4.267-6.4-8.533-8.533-12.8-4.267-4.267-8.533-10.667-12.8-14.933s-8.533-10.667-12.8-14.933c-19.2-19.2-38.4-36.267-59.733-51.2-10.667-8.533-21.333-14.933-32-21.333 0 0 0 0 0 0-10.667-6.4-23.467-12.8-34.133-19.2-12.8-6.4-23.467-10.667-36.267-14.933-17.067-6.4-34.133-10.667-53.333-14.933-27.733-6.4-57.6-8.533-87.467-8.533-8.533 0-14.933 0-23.467 0-10.667 0-21.333 2.133-32 2.133s-21.333 2.133-29.867 4.267c-6.4 2.133-12.8 2.133-19.2 4.267-21.333 6.4-42.667 12.8-64 21.333-4.267 2.133-8.533 2.133-10.667 4.267-10.667 6.4-21.333 10.667-34.133 17.067-6.4 2.133-10.667 6.4-17.067 10.667-51.2 32-93.867 76.8-125.867 125.867-4.267 6.4-6.4 10.667-10.667 17.067s-6.4 10.667-8.533 14.933c-4.267 6.4-6.4 12.8-8.533 17.067s-4.267 6.4-4.267 10.667c-2.133 4.267-4.267 6.4-4.267 10.667-4.267 8.533-6.4 17.067-10.667 25.6-2.133 8.533-6.4 17.067-8.533 27.733-8.533 34.133-12.8 68.267-12.8 104.533 0 85.333 25.6 166.4 70.4 232.533 2.133 4.267 6.4 8.533 8.533 12.8 0 0 0 0 0 0 6.4 8.533 12.8 17.067 21.333 27.733 0 2.133 2.133 2.133 4.267 4.267 4.267 4.267 8.533 10.667 12.8 14.933 6.4 6.4 10.667 10.667 17.067 17.067 4.267 4.267 8.533 6.4 10.667 10.667 4.267 4.267 10.667 8.533 14.933 12.8s10.667 8.533 14.933 12.8c6.4 4.267 10.667 8.533 17.067 10.667 6.4 4.267 14.933 8.533 21.333 12.8 14.933 8.533 29.867 17.067 44.8 21.333 6.4 2.133 10.667 4.267 17.067 6.4 4.267 2.133 8.533 2.133 10.667 4.267 10.667 4.267 19.2 6.4 29.867 8.533s21.333 4.267 32 6.4c4.267 0 6.4 2.133 10.667 2.133 6.4 0 14.933 2.133 21.333 2.133 0 0 0 0 2.133 0 6.4 0 12.8 0 19.2 2.133v-445.867l44.8 32 326.4 232.533c0 0-2.133 2.133-2.133 2.133s2.133-2.133 2.133-2.133 2.133-4.267 4.267-6.4 4.267-6.4 6.4-10.667c2.133-4.267 4.267-6.4 6.4-10.667 4.267-8.533 8.533-17.067 12.8-23.467 4.267-8.533 8.533-17.067 12.8-25.6 4.267-10.667 8.533-21.333 12.8-32 8.533-21.333 12.8-44.8 17.067-68.267 2.133-23.467 4.267-53.333 2.133-81.067zM902.4 727.467c2.133-2.133 2.133-4.267 4.267-6.4-2.133 2.133-4.267 4.267-4.267 6.4v0zM957.867 618.667v0c0 2.133-2.133 6.4-4.267 8.533 2.133-2.133 2.133-4.267 4.267-8.533z" />
<glyph unicode="&#xe916;" glyph-name="delete" data-tags="delete" d="M22.528 936.448l-22.528-23.552 225.28-224.256c123.904-123.904 225.28-231.424 225.28-240.64s-101.376-116.736-225.28-240.64l-225.28-224.256 22.528-23.552 22.528-24.576 226.304 226.304c123.904 123.904 232.448 225.28 240.64 225.28s116.736-101.376 240.64-225.28l224.256-224.256 23.552 21.504 24.576 22.528-226.304 226.304c-123.904 123.904-225.28 232.448-225.28 240.64s101.376 116.736 225.28 240.64l226.304 226.304-24.576 22.528-23.552 22.528-224.256-225.28c-123.904-123.904-231.424-225.28-240.64-225.28s-116.736 101.376-240.64 225.28c-122.88 123.904-225.28 225.28-225.28 225.28-1.024 0-11.264-10.24-23.552-23.552z" />
<glyph unicode="&#xe917;" glyph-name="facebook" data-tags="facebook" d="M17.408 941.568c-15.36-17.408-17.408-66.56-17.408-495.616 0-448.512 1.024-477.184 18.432-492.544 16.384-15.36 50.176-17.408 256-17.408h237.568v409.6h-122.88v143.36h122.88v79.872c1.024 163.84 75.776 237.568 242.688 237.568 93.184 0 95.232-2.048 95.232-77.824v-65.536h-59.392c-89.088 0-104.448-15.36-104.448-103.424v-70.656h149.504l-9.216-71.68-10.24-71.68h-130.048v-409.6h151.552c135.168 0 154.624 2.048 168.96 18.432 15.36 17.408 17.408 66.56 17.408 495.616 0 448.512-1.024 477.184-18.432 492.544s-66.56 17.408-495.616 17.408c-448.512 0-477.184-1.024-492.544-18.432z" />
<glyph unicode="&#xe918;" glyph-name="flag" data-tags="flag" horiz-adv-x="840" d="M778.24 448v-512h61.44v1024h-61.44v-512zM522.24 838.144c-98.304-37.888-247.808-96.256-332.8-129.024-83.968-31.744-159.744-62.464-167.936-66.56-17.408-9.216-11.264-13.312 87.040-50.176 45.056-16.384 129.024-49.152 188.416-72.704s153.6-59.392 209.92-80.896c56.32-21.504 126.976-49.152 156.672-61.44l53.248-21.504v276.48c0 152.576-3.072 276.48-7.168 276.48-5.12-1.024-89.088-31.744-187.392-70.656zM655.36 631.296c0-144.384-3.072-184.32-12.288-180.224-53.248 21.504-324.608 125.952-381.952 147.456-38.912 15.36-74.752 29.696-78.848 33.792-4.096 3.072 51.2 27.648 122.88 55.296s174.080 67.584 227.328 89.088c53.248 21.504 103.424 38.912 110.592 39.936 9.216 0 12.288-44.032 12.288-185.344z" />
<glyph unicode="&#xe919;" glyph-name="global" data-tags="global" d="M392.192 945.664c-224.256-54.272-392.192-267.264-392.192-497.664 0-276.48 235.52-512 512-512s512 235.52 512 512c0 280.576-238.592 515.072-520.192 510.976-31.744 0-81.92-6.144-111.616-13.312zM503.808 840.192c37.888-36.864 38.912-36.864 59.392-18.432 13.312 12.288 18.432 25.6 14.336 38.912-6.144 18.432-3.072 19.456 30.72 14.336 20.48-3.072 63.488-18.432 96.256-33.792 47.104-22.528 54.272-28.672 35.84-31.744-13.312-3.072-23.552-7.168-23.552-9.216 0-11.264 46.080-94.208 74.752-137.216 27.648-39.936 32.768-57.344 37.888-138.24 7.168-104.448 26.624-151.552 72.704-177.152 24.576-14.336 28.672-22.528 24.576-43.008-17.408-69.632-99.328-174.080-178.176-224.256-52.224-33.792-141.312-68.608-151.552-59.392-3.072 3.072 15.36 27.648 39.936 55.296 62.464 67.584 101.376 137.216 89.088 158.72-5.12 9.216-49.152 40.96-98.304 70.656-79.872 48.128-95.232 53.248-141.312 51.2-41.984-1.024-60.416 4.096-92.16 25.6-74.752 49.152-107.52 87.040-107.52 123.904 0 31.744 2.048 33.792 37.888 33.792 24.576 0 46.080-8.192 61.44-22.528 29.696-27.648 41.984-17.408 26.624 23.552-10.24 27.648-9.216 32.768 9.216 48.128 60.416 48.128 110.592 98.304 110.592 109.568 0 16.384-57.344 66.56-75.776 66.56-7.168 0-23.552-12.288-37.888-26.624l-24.576-26.624-7.168 34.816c-5.12 27.648-2.048 38.912 19.456 61.44 24.576 25.6 24.576 26.624 5.12 32.768-11.264 4.096-32.768 4.096-47.104 0-38.912-9.216-32.768 11.264 7.168 24.576 63.488 20.48 91.136 15.36 132.096-25.6zM184.32 647.68c0-55.296 5.12-89.088 19.456-115.712 10.24-20.48 21.504-49.152 25.6-63.488 4.096-16.384 40.96-51.2 98.304-95.232 95.232-72.704 101.376-81.92 80.896-138.24-13.312-38.912-1.024-65.536 51.2-110.592l36.864-32.768-18.432-37.888c-17.408-36.864-20.48-37.888-59.392-32.768-106.496 14.336-245.76 122.88-299.008 232.448-51.2 104.448-59.392 233.472-21.504 339.968 16.384 47.104 66.56 131.072 78.848 131.072 4.096 0 7.168-34.816 7.168-76.8z" />
<glyph unicode="&#xe91a;" glyph-name="info" data-tags="info" d="M363.52 935.424c-97.28-31.744-125.952-48.128-192.512-108.544-75.776-68.608-114.688-131.072-145.408-228.352-41.984-131.072-28.672-269.312 36.864-397.312 25.6-51.2 112.64-144.384 169.984-182.272 69.632-46.080 193.536-82.944 279.552-82.944s209.92 36.864 279.552 82.944c191.488 126.976 275.456 362.496 206.848 579.584-30.72 97.28-69.632 159.744-145.408 228.352-65.536 60.416-104.448 81.92-201.728 111.616-93.184 28.672-193.536 27.648-287.744-3.072zM701.44 854.528c101.376-48.128 168.96-116.736 218.112-220.16 35.84-75.776 37.888-83.968 37.888-186.368s-2.048-110.592-37.888-186.368c-49.152-104.448-116.736-172.032-221.184-221.184-75.776-35.84-83.968-37.888-186.368-37.888s-110.592 2.048-186.368 37.888c-104.448 49.152-172.032 116.736-221.184 221.184-35.84 75.776-37.888 83.968-37.888 186.368s2.048 110.592 37.888 186.368c46.080 96.256 113.664 167.936 201.728 211.968 86.016 44.032 124.928 52.224 228.352 48.128 76.8-3.072 100.352-8.192 166.912-39.936zM447.488 695.808c-21.504-23.552-21.504-41.984-1.024-71.68 29.696-43.008 106.496-18.432 106.496 35.84 0 48.128-72.704 72.704-105.472 35.84zM421.888 512.512c2.048-22.528 9.216-29.696 31.744-31.744l28.672-3.072-6.144-260.096-28.672-3.072c-24.576-3.072-28.672-7.168-25.6-30.72 3.072-27.648 3.072-27.648 90.112-27.648s87.040 0 90.112 27.648c3.072 23.552-1.024 27.648-25.6 30.72l-28.672 3.072-3.072 161.792-3.072 160.768h-61.44c-61.44 0-61.44 0-58.368-27.648z" />
<glyph unicode="&#xe91b;" glyph-name="menu" data-tags="menu" horiz-adv-x="1751" d="M22.528 936.448c-28.672-29.696-28.672-68.608-2.048-97.28l21.504-22.528h833.536c821.248 0 834.56 0 855.040 20.48 27.648 27.648 26.624 72.704-3.072 100.352l-23.552 22.528h-1659.904l-21.504-23.552zM22.528 496.128c-28.672-30.72-28.672-69.632 1.024-97.28l23.552-22.528h1659.904l21.504 23.552c28.672 30.72 28.672 69.632-1.024 97.28l-23.552 22.528h-1659.904l-21.504-23.552zM20.48 56.832c-27.648-29.696-25.6-70.656 3.072-98.304l23.552-22.528h1659.904l21.504 23.552c28.672 29.696 28.672 68.608 2.048 97.28l-21.504 22.528h-1667.072l-21.504-22.528z" />
<glyph unicode="&#xe91c;" glyph-name="search" data-tags="search" d="M280.576 938.496c-231.424-79.872-343.040-338.944-240.64-557.056 104.448-224.256 386.048-306.176 589.824-172.032l39.936 26.624 145.408-149.504c142.336-146.432 168.96-165.888 196.608-138.24s9.216 55.296-135.168 201.728l-147.456 149.504 24.576 35.84c71.68 103.424 79.872 264.192 20.48 396.288-80.896 174.080-310.272 270.336-493.568 206.848zM551.936 838.144c140.288-72.704 205.824-232.448 158.72-390.144-23.552-79.872-118.784-173.056-202.752-198.656-114.688-35.84-240.64-7.168-322.56 74.752-63.488 63.488-86.016 115.712-91.136 211.968-4.096 73.728-1.024 91.136 20.48 139.264 35.84 76.8 80.896 124.928 154.624 161.792 59.392 30.72 69.632 31.744 150.528 28.672 64.512-3.072 98.304-10.24 132.096-27.648z" />
</font>
</defs>
</svg>
